<svg width="82" height="72" viewBox="0 0 82 72" fill="none" xmlns="http://www.w3.org/2000/svg">
<path d="M11.307 70.1834C11.307 70.1834 11.2348 72 13.0092 72C15.2168 72 33.4935 71.9759 33.4935 71.9759L33.5236 55.1909C33.5236 55.1909 33.2349 52.424 35.9206 52.424H44.4198C47.5958 52.424 47.4003 55.1909 47.4003 55.1909L47.3642 71.9218C47.3642 71.9218 64.6936 71.9218 67.4154 71.9218C69.668 71.9218 69.5658 69.6601 69.5658 69.6601V38.7157L41.3071 13.5787L11.307 38.7157V70.1834Z" fill="#A3A4BF"/>
<path d="M0.257317 36.376C0.257317 36.376 2.80469 41.0708 8.35959 36.376L41.5567 8.29175L72.6816 36.2016C79.1117 40.8392 81.5207 36.2016 81.5207 36.2016L41.5567 0L0.257317 36.376Z" fill="#A3A4BF"/>
<path d="M71.9267 8.22552H63.9206L63.9537 17.9338L71.9267 24.6978V8.22552Z" fill="#A3A4BF"/>
</svg>
