<svg width="72" height="90" viewBox="0 0 72 90" fill="none" xmlns="http://www.w3.org/2000/svg">
<path d="M65.5305 17.3279C66.2219 16.0028 66.5823 14.5302 66.5809 13.0356C66.5809 7.90232 57.2817 5.00793 57.2817 0C57.2817 5.00793 47.9815 7.89738 47.9815 13.0356C47.9801 14.5302 48.3405 16.0028 49.0319 17.3279H65.5305Z" fill="#259AF9"/>
<path d="M65.0458 23.2657L67.3084 17.9172H47.254L49.5166 23.2657H65.0458Z" fill="#259AF9"/>
<path d="M61.5868 54.1949C63.0675 54.1949 64.3508 54.6974 65.1663 55.4881V23.7465H49.3971V43.6272C49.8907 43.9905 50.3705 44.3686 50.8226 44.7664C53.3429 46.9915 54.5739 49.413 54.5739 52.1702C54.5735 52.8449 54.5376 53.5191 54.4663 54.19L61.5868 54.1949Z" fill="#259AF9"/>
<path d="M53.5719 54.4307C53.6647 53.6824 53.7112 52.929 53.7111 52.175C53.7111 43.3487 39.636 40.8452 36.2796 36.1018H36.3655C36.4626 36.1018 36.5558 36.0633 36.6245 35.9946C36.6931 35.9259 36.7317 35.8327 36.7317 35.7356C36.7316 35.6714 36.7146 35.6084 36.6824 35.553C36.6501 35.4975 36.6038 35.4515 36.5481 35.4197C37.6961 35.2579 38.7601 34.7263 39.5787 33.9054C40.048 33.4365 40.4257 32.8841 40.6923 32.2765C40.5724 32.4293 40.4436 32.5747 40.3063 32.7119C39.6971 33.3217 38.9411 33.7644 38.1112 33.9973C37.2813 34.2302 36.4054 34.2455 35.5678 34.0416C34.6706 33.8254 33.8506 33.3652 33.1986 32.7119C32.7317 32.2453 32.3613 31.6913 32.1085 31.0816C31.8558 30.4718 31.7257 29.8182 31.7257 29.1581C31.7257 28.498 31.8558 27.8444 32.1085 27.2346C32.3613 26.6248 32.7317 26.0708 33.1986 25.6042C33.3359 25.467 33.4812 25.3381 33.634 25.2183C33.0265 25.4848 32.4741 25.8625 32.0051 26.3318C31.508 26.8287 31.1136 27.4188 30.8445 28.0682C30.5755 28.7176 30.437 29.4137 30.437 30.1166C30.437 30.8196 30.5755 31.5156 30.8445 32.165C31.1136 32.8144 31.508 33.4045 32.0051 33.9014C32.7535 34.6519 33.7086 35.1623 34.7485 35.3674C34.6544 35.3712 34.5654 35.4112 34.5001 35.4791C34.4348 35.547 34.3982 35.6375 34.398 35.7317C34.398 35.8288 34.4366 35.9219 34.5053 35.9906C34.574 36.0593 34.6672 36.0979 34.7643 36.0979H34.8502C31.4938 40.8363 17.4187 43.3447 17.4187 52.171C17.4185 52.9251 17.465 53.6784 17.5579 54.4267L53.5719 54.4307Z" fill="#259AF9"/>
<path d="M68.7359 86.8426H65.2028V57.4851C65.2028 56.1415 63.5828 55.0517 61.5848 55.0517H9.54498C7.54694 55.0517 5.92699 56.1376 5.92699 57.4851V86.8426H2.39785C1.76198 86.8429 1.15223 87.0956 0.702602 87.5452C0.252975 87.9948 0.00026162 88.6046 0 89.2405H71.1377C71.1375 88.9253 71.0753 88.6132 70.9545 88.3221C70.8337 88.031 70.6567 87.7665 70.4337 87.5438C70.2106 87.3211 69.9459 87.1446 69.6545 87.0243C69.3632 86.9039 69.0511 86.8422 68.7359 86.8426ZM12.3782 86.8426V79.5711C12.3785 78.332 12.6988 77.114 13.3081 76.035L15.8066 71.6095L18.3052 76.035C18.9142 77.1141 19.2341 78.3321 19.2341 79.5711V86.8426H12.3782ZM30.2598 86.8426V76.4655C30.2598 75.2256 30.7534 74.0074 31.6932 72.9284L35.5432 68.5029L39.3931 72.9284C40.3329 74.0074 40.8265 75.2256 40.8265 76.4655V86.8426H30.2598ZM51.8572 86.8426V79.5711C51.8571 78.3321 52.1771 77.1141 52.7861 76.035L55.2846 71.6095L57.7832 76.035C58.3925 77.114 58.7128 78.332 58.7131 79.5711V86.8426H51.8572Z" fill="#259AF9"/>
</svg>
