<svg xmlns="http://www.w3.org/2000/svg" version="1.1" xmlns:xlink="http://www.w3.org/1999/xlink" xmlns:svgjs="http://svgjs.com/svgjs" width="512" height="512" x="0" y="0" viewBox="0 0 512 512" style="enable-background:new 0 0 512 512" xml:space="preserve" class=""><g><path d="M456.313 85.333h-55.527C386.809 36.16 341.594 0 288 0s-98.809 36.16-112.785 85.333h-69.441l-3.482-11.938c-5.271-18.094-22.115-30.729-40.958-30.729H32a10.66 10.66 0 0 0-10.667 10.667A10.66 10.66 0 0 0 32 64h29.333c9.427 0 17.844 6.313 20.479 15.365L148.208 307l-34.021 42.521a34.48 34.48 0 0 0-7.521 21.458c0 18.948 15.406 34.354 34.354 34.354h296.313c5.896 0 10.667-4.771 10.667-10.667S443.229 384 437.333 384H141.021c-7.177 0-13.021-5.844-13.021-13.021 0-2.948 1.01-5.844 2.854-8.135L165.133 320h209.221c16.448 0 31.604-9.615 38.615-24.5l74.438-158.177a34.636 34.636 0 0 0 3.26-14.615v-3.021c0-18.947-15.407-34.354-34.354-34.354zM288 21.333c52.938 0 96 43.063 96 96s-43.063 96-96 96-96-43.063-96-96 43.063-96 96-96zm181.333 101.375c0 1.906-.427 3.823-1.24 5.542l-74.427 158.167c-3.51 7.438-11.083 12.25-19.313 12.25H168l-56.004-192h59.211c-.319 3.518-.54 7.066-.54 10.667 0 64.698 52.635 117.333 117.333 117.333s117.333-52.635 117.333-117.333c0-3.6-.221-7.148-.54-10.667h51.52c7.177 0 13.021 5.844 13.021 13.021v3.02zM149.333 426.667c-23.531 0-42.667 19.135-42.667 42.667S125.802 512 149.333 512 192 492.865 192 469.333s-19.135-42.666-42.667-42.666zm0 64c-11.76 0-21.333-9.573-21.333-21.333 0-11.76 9.573-21.333 21.333-21.333 11.76 0 21.333 9.573 21.333 21.333.001 11.76-9.572 21.333-21.333 21.333zM405.333 426.667c-23.531 0-42.667 19.135-42.667 42.667S381.802 512 405.333 512 448 492.865 448 469.333s-19.135-42.666-42.667-42.666zm0 64c-11.76 0-21.333-9.573-21.333-21.333 0-11.76 9.573-21.333 21.333-21.333 11.76 0 21.333 9.573 21.333 21.333.001 11.76-9.572 21.333-21.333 21.333z" fill="#fbfbfb" data-original="#000000" class=""></path><path d="M259.125 167.542a10.634 10.634 0 0 0 7.542 3.125c2.729 0 5.458-1.042 7.542-3.125l74.667-74.667c4.167-4.167 4.167-10.917 0-15.083-4.167-4.167-10.917-4.167-15.083 0l-67.125 67.125-24.458-24.458c-4.167-4.167-10.917-4.167-15.083 0-4.167 4.167-4.167 10.917 0 15.083l31.998 32z" fill="#fbfbfb" data-original="#000000" class=""></path></g></svg>