<svg xmlns="http://www.w3.org/2000/svg" version="1.1" xmlns:xlink="http://www.w3.org/1999/xlink" xmlns:svgjs="http://svgjs.com/svgjs" width="512" height="512" x="0" y="0" viewBox="0 0 64 64" style="enable-background:new 0 0 512 512" xml:space="preserve" class=""><g><path d="M36.852 21.559a1 1 0 0 0 .714.321h.02a1 1 0 0 0 .707-.293l6.881-6.88a1 1 0 0 0-1.414-1.414l-6.146 6.145-2.88-3.117a1 1 0 1 0-1.468 1.358Z" fill="#ffffff" data-original="#000000" class=""></path><path d="M38 32a13 13 0 1 0-13-13 13.015 13.015 0 0 0 13 13Zm0-24a11 11 0 1 1-11 11A11.013 11.013 0 0 1 38 8Z" fill="#ffffff" data-original="#000000" class=""></path><path d="M63.8 24.3a1 1 0 0 0-.8-.4h-9.973a1 1 0 0 0 0 2h8.62L58.858 35h-10.1l1.089-4.788a1 1 0 1 0-1.951-.443L46.7 35H39v-.968a1 1 0 0 0-2 0V35h-7.7l-1.189-5.231a1 1 0 0 0-1.951.443L27.247 35H18l-2.88-9.1h7.949a1 1 0 1 0 0-2h-8.58l-3.536-11.2A1 1 0 0 0 10 12H1a1 1 0 0 0 0 2h8.268l11.779 37.3A1 1 0 0 0 22 52h2.155a3.949 3.949 0 0 0-.556 2 4 4 0 0 0 8 0 3.95 3.95 0 0 0-.557-2h15.514A3.959 3.959 0 0 0 46 54a4 4 0 0 0 8 0 3.959 3.959 0 0 0-.556-2H55a1 1 0 0 0 0-2H22.732l-.632-2h34.126a1 1 0 0 0 .956-.707l6.774-22.107a1 1 0 0 0-.156-.886ZM29.6 54a2 2 0 1 1-2-2 2 2 0 0 1 2 2ZM52 54a2 2 0 1 1-2-2 2 2 0 0 1 2 2Zm-5.753-17L44.2 46H39v-9ZM37 37v9h-5.2l-2.046-9Zm-18.373 0H27.7l2.046 9H21.47Zm36.859 9h-9.233l2.047-9h9.946Z" fill="#ffffff" data-original="#000000" class=""></path></g></svg>