<svg width="40" height="40" viewBox="0 0 40 40" fill="none" xmlns="http://www.w3.org/2000/svg">
<circle cx="20" cy="20" r="20" fill="#F2F7FF"/>
<path d="M19.223 31.2825C17.3116 31.2825 15.7551 29.683 15.7551 27.7163C15.7551 27.3226 16.0658 27.0031 16.4487 27.0031C16.8315 27.0031 17.1423 27.3226 17.1423 27.7163C17.1423 28.8966 18.0763 29.8561 19.223 29.8561C20.3696 29.8561 21.3036 28.8966 21.3036 27.7163C21.3036 27.3226 21.6144 27.0031 21.9972 27.0031C22.3801 27.0031 22.6908 27.3226 22.6908 27.7163C22.6908 29.683 21.1345 31.2825 19.223 31.2825Z" fill="#9697B6"/>
<path d="M26.8318 28.4788H11.614C10.724 28.4788 10 27.7517 10 26.8577C10 26.3833 10.2057 25.9341 10.5644 25.6255C10.5875 25.6052 10.6123 25.5867 10.6382 25.5699C11.9921 24.3832 12.7669 22.6759 12.7669 20.8731V18.2885C12.7669 14.7127 15.6638 11.8038 19.2229 11.8038C19.3705 11.8038 19.53 11.8065 19.6776 11.8316C20.0547 11.8945 20.3094 12.2531 20.2466 12.6311C20.1839 13.009 19.8205 13.2648 19.4507 13.2017C19.3769 13.1896 19.2958 13.1934 19.2229 13.1934C16.4266 13.1934 14.1503 15.4788 14.1503 18.2885V20.8731C14.1503 23.1113 13.1735 25.2291 11.4729 26.6825C11.4591 26.6937 11.4471 26.7039 11.4322 26.714C11.4074 26.7456 11.3834 26.7938 11.3834 26.8577C11.3834 26.9836 11.4886 27.0893 11.614 27.0893H26.8318C26.9572 27.0893 27.0624 26.9836 27.0624 26.8577C27.0624 26.7927 27.0385 26.7456 27.0126 26.714C26.9988 26.7039 26.9868 26.6937 26.9729 26.6825C25.2713 25.2281 24.2956 23.1113 24.2956 20.8731V19.8635C24.2956 19.4799 24.6055 19.1687 24.9873 19.1687C25.3691 19.1687 25.679 19.4799 25.679 19.8635V20.8731C25.679 22.6769 26.4547 24.3851 27.8104 25.5728C27.8352 25.5894 27.8592 25.6071 27.8813 25.6266C28.2402 25.9341 28.4459 26.3833 28.4459 26.8577C28.4459 27.7517 27.7219 28.4788 26.8318 28.4788Z" fill="#9697B6"/>
<path d="M25.7161 18.2967C23.1529 18.2967 21.0676 16.2116 21.0676 13.6484C21.0676 11.0853 23.1529 9 25.7161 9C28.2792 9 30.3643 11.0853 30.3643 13.6484C30.3643 16.2116 28.2792 18.2967 25.7161 18.2967ZM25.7161 10.3945C23.9217 10.3945 22.4621 11.8541 22.4621 13.6484C22.4621 15.4427 23.9217 16.9022 25.7161 16.9022C27.5103 16.9022 28.9698 15.4427 28.9698 13.6484C28.9698 11.8541 27.5103 10.3945 25.7161 10.3945Z" fill="#9697B6"/>
</svg>
