<svg width="17" height="19" viewBox="0 0 17 19" fill="none" xmlns="http://www.w3.org/2000/svg">
<path fill-rule="evenodd" clip-rule="evenodd" d="M12.0685 2.46978H14.8113C15.7188 2.46978 16.457 3.20805 16.457 4.11549C16.457 4.84428 15.9807 5.46354 15.3231 5.67927L14.3448 17.4906C14.2742 18.3371 13.5539 19 12.7047 19H3.75235C2.9032 19 2.18282 18.3371 2.11235 17.4909L1.13389 5.67931C0.47634 5.46354 0 4.84428 0 4.11549C0 3.20805 0.738262 2.46978 1.6457 2.46978H4.38854V1.92122C4.38854 1.01378 5.1268 0.275513 6.03425 0.275513H10.4228C11.3302 0.275513 12.0685 1.01378 12.0685 1.92122V2.46978ZM6.03425 1.37265C5.73176 1.37265 5.48568 1.61874 5.48568 1.92122V2.46978H10.9714V1.92122C10.9714 1.61874 10.7253 1.37265 10.4228 1.37265H6.03425ZM12.7047 17.9028C12.9877 17.9028 13.2278 17.6819 13.2513 17.3998L14.2154 5.76119H2.24159L3.20576 17.4001C3.2292 17.6819 3.46933 17.9028 3.75235 17.9028H12.7047ZM1.6457 4.66405H14.8113C15.1138 4.66405 15.3599 4.41797 15.3599 4.11549C15.3599 3.81301 15.1138 3.56692 14.8113 3.56692H1.6457C1.34322 3.56692 1.09714 3.81301 1.09714 4.11549C1.09714 4.41797 1.34322 4.66405 1.6457 4.66405ZM5.48466 7.37289L6.03323 16.2231C6.05272 16.5381 5.80287 16.8057 5.48517 16.8057C5.19772 16.8057 4.95621 16.5819 4.93818 16.291L4.38961 7.44077C4.37088 7.13839 4.60081 6.87808 4.90321 6.85932C5.20416 6.84049 5.4659 7.07048 5.48466 7.37289ZM8.22852 6.85837C7.92556 6.85837 7.67995 7.10398 7.67995 7.40694V16.2572C7.67995 16.5601 7.92556 16.8057 8.22852 16.8057C8.53147 16.8057 8.77708 16.5601 8.77708 16.2572V7.40694C8.77708 7.10398 8.53147 6.85837 8.22852 6.85837ZM10.9724 7.37301C10.9911 7.0706 11.2521 6.84068 11.5539 6.85944C11.8563 6.87816 12.0862 7.13848 12.0675 7.44088L11.5189 16.2911C11.5002 16.5934 11.24 16.8234 10.9375 16.8047C10.6351 16.7859 10.4052 16.5256 10.4239 16.2232L10.9724 7.37301Z" fill="#259AF9"/>
</svg>
