<svg width="20" height="19" viewBox="0 0 20 19" fill="none" xmlns="http://www.w3.org/2000/svg">
<path d="M19.2189 0H0.781292C0.34975 0 0 0.332246 0 0.742189C0 2.80901 0.932667 4.78219 2.55888 6.15539L5.98054 9.04442C6.57384 9.54539 6.91413 10.2653 6.91413 11.0195V18.257C6.91413 18.8484 7.60996 19.203 8.12864 18.8744L12.7381 15.9553C12.9554 15.8176 13.086 15.586 13.086 15.3378V11.0195C13.086 10.2653 13.4263 9.54539 14.0196 9.04442L17.4411 6.15539C19.0673 4.78219 20 2.80901 20 0.742189C20 0.332246 19.6502 0 19.2189 0ZM16.403 5.04587L12.9815 7.93505C12.0549 8.71753 11.5234 9.84169 11.5234 11.0193V14.9406L8.47656 16.8702V11.0195C8.47656 9.84169 7.94507 8.71753 7.0185 7.93505L3.59699 5.04602C2.50044 4.11987 1.80048 2.85091 1.61309 1.48423H18.3869C18.1995 2.85091 17.4997 4.11987 16.403 5.04587Z" fill="black"/>
</svg>
