<svg width="20" height="19" viewBox="0 0 20 19" fill="none" xmlns="http://www.w3.org/2000/svg">
<path d="M12.3616 5.1878C12.3615 4.72074 12.223 4.26418 11.9634 3.87586C11.7039 3.48755 11.3351 3.18491 10.9035 3.00621C10.472 2.82752 9.99717 2.7808 9.53909 2.87196C9.08101 2.96311 8.66025 3.18806 8.33001 3.51834C7.99977 3.84863 7.77488 4.26942 7.68378 4.72752C7.59269 5.18561 7.63947 5.66043 7.81822 6.09193C7.99698 6.52344 8.29967 6.89225 8.68802 7.15173C9.07637 7.41121 9.53295 7.5497 10 7.5497C10.6262 7.54894 11.2264 7.29985 11.6692 6.85706C12.1119 6.41427 12.3609 5.81395 12.3616 5.1878ZM8.19778 5.1878C8.19784 4.83137 8.3036 4.48296 8.50167 4.18662C8.69974 3.89029 8.98123 3.65934 9.31055 3.52299C9.63987 3.38663 10.0022 3.35098 10.3518 3.42056C10.7014 3.49013 11.0225 3.66181 11.2745 3.91386C11.5265 4.16592 11.6981 4.48705 11.7676 4.83664C11.8371 5.18623 11.8014 5.54858 11.665 5.87788C11.5286 6.20718 11.2976 6.48863 11.0012 6.68664C10.7049 6.88466 10.3564 6.99035 10 6.99035C9.52214 6.9898 9.06401 6.7997 8.72614 6.46177C8.38826 6.12384 8.19825 5.66567 8.19778 5.1878Z" fill="black"/>
<path d="M19.4815 18.6199L17.2016 12.6429C17.1814 12.5899 17.1456 12.5444 17.0989 12.5123C17.0523 12.4801 16.9969 12.4629 16.9403 12.4629H12.6253C12.6517 12.4199 12.6779 12.3782 12.7042 12.3351C14.3646 9.58625 15.2001 7.18167 15.1881 5.1891C15.1883 3.8131 14.6419 2.49336 13.6691 1.52022C12.6963 0.547072 11.3767 0.000233195 10.0007 7.45657e-08C8.62473 -0.000233046 7.305 0.546158 6.33185 1.51897C5.3587 2.49179 4.81187 3.81134 4.81163 5.18735C4.79965 7.18167 5.63516 9.58657 7.29547 12.3351C7.32184 12.3787 7.34805 12.4204 7.37442 12.4629H3.05942C3.00277 12.4629 2.94746 12.4801 2.90081 12.5123C2.85415 12.5444 2.81835 12.5899 2.79813 12.6429L0.518529 18.6199C0.502286 18.6623 0.496598 18.7079 0.501957 18.753C0.507315 18.798 0.523559 18.8411 0.549285 18.8784C0.575011 18.9158 0.609445 18.9463 0.649612 18.9674C0.689779 18.9884 0.734471 18.9994 0.779826 18.9993H19.2202C19.2656 18.9994 19.3103 18.9884 19.3504 18.9674C19.3906 18.9463 19.425 18.9158 19.4508 18.8784C19.4765 18.8411 19.4927 18.798 19.4981 18.753C19.5034 18.7079 19.4978 18.6623 19.4815 18.6199ZM5.37114 5.18783C5.37125 4.57995 5.49108 3.97805 5.7238 3.41649C5.95652 2.85493 6.29757 2.34471 6.72747 1.91495C7.15738 1.4852 7.66772 1.14432 8.22936 0.911797C8.791 0.679272 9.39294 0.559646 10.0008 0.559751C10.6087 0.559856 11.2106 0.679689 11.7721 0.912409C12.3337 1.14513 12.8439 1.48618 13.2737 1.91608C13.7034 2.34599 14.0443 2.85633 14.2768 3.41797C14.5094 3.97961 14.629 4.58155 14.6289 5.18942C14.6529 9.1621 10.9388 14.0619 10 15.2368C9.06127 14.0623 5.34701 9.16386 5.37114 5.18783ZM9.78698 15.8601C9.81324 15.891 9.84589 15.9158 9.88267 15.9328C9.91946 15.9498 9.9595 15.9586 10 15.9586C10.0405 15.9586 10.0806 15.9498 10.1174 15.9328C10.1541 15.9158 10.1868 15.891 10.2131 15.8601C10.9556 14.9555 11.644 14.0078 12.2747 13.0219H16.7474L17.1054 13.9609L8.36495 17.0694L5.24953 13.0215H7.72506C8.35579 14.0075 9.0443 14.9554 9.78698 15.8601ZM8.3552 17.666H8.3568L13.5711 15.8122L15.5935 18.44H6.18045L8.3552 17.666ZM3.25232 13.0215H4.54362L7.81056 17.2665L4.5115 18.4398H1.18576L3.25232 13.0215ZM16.3001 18.44L14.1252 15.6141L17.3055 14.4831L18.8146 18.44H16.3001Z" fill="black"/>
</svg>
