<svg width="21" height="20" viewBox="0 0 21 20" fill="none" xmlns="http://www.w3.org/2000/svg">
<path d="M12.02 13.5752C11.7712 13.5752 11.5326 13.6741 11.3567 13.85C11.1807 14.0259 11.0819 14.2645 11.0819 14.5133V16.7987C11.0816 17.15 10.9419 17.4868 10.6936 17.7352C10.4452 17.9836 10.1085 18.1234 9.75724 18.1238H3.20082C2.84956 18.1234 2.51281 17.9836 2.26447 17.7352C2.01613 17.4868 1.87648 17.15 1.87617 16.7987V3.20121C1.87648 2.84995 2.01613 2.51316 2.26447 2.26474C2.51281 2.01633 2.84956 1.87658 3.20082 1.87617H9.75724C10.1085 1.87658 10.4452 2.01633 10.6936 2.26474C10.9419 2.51316 11.0816 2.84995 11.0819 3.20121V5.17666C11.0819 5.42545 11.1807 5.66406 11.3567 5.83998C11.5326 6.01591 11.7712 6.11474 12.02 6.11474C12.2688 6.11474 12.5074 6.01591 12.6833 5.83998C12.8592 5.66406 12.9581 5.42545 12.9581 5.17666V3.20121C12.957 2.35258 12.6195 1.539 12.0194 0.938893C11.4194 0.338785 10.6059 0.00113777 9.75724 0H3.20082C2.35219 0.00113777 1.53865 0.338785 0.938617 0.938893C0.338582 1.539 0.00103415 2.35258 0 3.20121V16.7987C0.00103415 17.6474 0.338582 18.4609 0.938617 19.061C1.53865 19.6612 2.35219 19.9988 3.20082 19.9999H9.75724C10.6059 19.9988 11.4194 19.6612 12.0194 19.061C12.6195 18.4609 12.957 17.6474 12.9581 16.7987V14.5133C12.9581 14.2645 12.8592 14.0259 12.6833 13.85C12.5074 13.6741 12.2688 13.5752 12.02 13.5752Z" fill="white"/>
<path d="M19.7232 9.31706L16.3848 5.981C16.2112 5.80738 15.9764 5.70879 15.7308 5.70637C15.4853 5.70396 15.2486 5.79793 15.0715 5.9681C14.6924 6.33278 14.7014 6.95035 15.0735 7.32246L16.8117 9.06182H8.68161C8.43282 9.06182 8.19421 9.16066 8.01829 9.33658C7.84236 9.51251 7.74353 9.75111 7.74353 9.99991C7.74353 10.2487 7.84236 10.4873 8.01829 10.6632C8.19421 10.8392 8.43282 10.938 8.68161 10.938H16.8117L15.0567 12.693C14.8807 12.8689 14.7818 13.1075 14.7818 13.3563C14.7817 13.6052 14.8806 13.8438 15.0565 14.0198C15.2324 14.1958 15.471 14.2946 15.7198 14.2947C15.9687 14.2947 16.2073 14.1959 16.3833 14.02L19.7232 10.6816C19.813 10.5921 19.8841 10.4857 19.9327 10.3686C19.9813 10.2516 20.0063 10.1261 20.0063 9.99932C20.0063 9.87258 19.9813 9.74708 19.9327 9.63C19.8841 9.51293 19.813 9.40659 19.7232 9.31706Z" fill="white"/>
</svg>
