<svg width="171" height="253" viewBox="0 0 171 253" fill="none" xmlns="http://www.w3.org/2000/svg">
<mask id="mask0_208_29" style="mask-type:luminance" maskUnits="userSpaceOnUse" x="0" y="0" width="171" height="253">
<path d="M22.834 100.57C18.7116 107.261 14.2457 113.843 10.826 120.87C5.09912 132.813 1.58605 145.696 0.457436 158.893C-0.507595 168.291 0.0565785 177.783 2.12818 187C6.69565 206.863 17.5249 222.822 33.5852 235.111C53.9553 250.726 77.1205 255.567 102.089 250.726C123.217 246.666 140.206 235.455 153.292 218.34C162.97 205.93 168.754 190.93 169.914 175.234C170.749 164.918 169.958 154.535 167.572 144.464C165.229 134.721 162.411 125.063 157.164 116.451C141.815 91.2868 107.024 35.2514 104.853 31.8863C104.01 33.198 66.8455 94.8939 48.8958 124.906C44.992 131.371 40.7291 137.602 38.1994 144.831C34.2956 155.903 32.8513 167.193 35.2014 178.701C37.8169 191.474 44.8672 201.702 55.2591 209.346C66.9706 217.989 80.1108 222.252 94.875 219.09C112.606 215.288 125.325 204.989 133.226 188.804C137.848 179.31 138.403 169.168 136.974 158.838C135.834 150.601 133.562 142.723 129.244 135.572C119.875 120.097 99.9188 87.7655 99.2239 86.8286L90.4482 101.663C98.4354 115.147 106.352 128.271 114.019 141.544C119.188 150.5 121.218 160.283 119.344 170.495C116.432 186.313 103.268 198.337 85.7714 198.267C78.4416 198.337 71.2927 195.99 65.4302 191.59C59.5678 187.189 55.3183 180.98 53.3385 173.923C50.2154 162.516 52.097 151.648 57.7888 141.568C69.266 121.206 81.0712 101.031 92.7514 80.7855C96.257 74.7034 99.7782 68.6446 103.393 62.4454C103.752 62.8826 128.167 103.193 139.964 123.267C150.692 141.537 154.518 161.267 150.895 182.199C148.053 198.595 139.558 211.868 126.785 222.275C117.616 229.819 106.405 234.454 94.5861 235.587C85.9977 236.485 77.4952 236.431 69.063 234.533C54.4002 231.239 42.517 223.556 33.0854 211.891C23.4009 200.093 18.0866 185.314 18.0402 170.05C18.0697 163.764 18.6602 157.493 19.8048 151.312C21.296 142.723 23.7709 134.26 28.2681 126.71C44.5939 99.2739 89.1053 25.3825 94.9376 15.6621C91.7755 10.5715 88.6367 5.51218 85.2247 0C84.2253 1.45222 42.8138 68.1918 22.834 100.562" fill="white"/>
</mask>
<g mask="url(#mask0_208_29)">
<path d="M170.694 0.00732422H-0.433228V255.528H170.694V0.00732422Z" fill="url(#paint0_linear_208_29)"/>
<path d="M170.694 0.00732422H-0.433228V255.528H170.694V0.00732422Z" fill="url(#paint1_linear_208_29)"/>
</g>
<defs>
<linearGradient id="paint0_linear_208_29" x1="80.1643" y1="256.391" x2="80.1643" y2="-3.2743" gradientUnits="userSpaceOnUse">
<stop stop-color="#59A6C4"/>
<stop offset="0.18" stop-color="#4C93B7"/>
<stop offset="0.73" stop-color="#275F91"/>
<stop offset="1" stop-color="#194A82"/>
</linearGradient>
<linearGradient id="paint1_linear_208_29" x1="80.1643" y1="256.391" x2="80.1643" y2="-3.2743" gradientUnits="userSpaceOnUse">
<stop stop-color="#59A6C4"/>
<stop offset="0.18" stop-color="#4C93B7"/>
<stop offset="0.73" stop-color="#275F91"/>
<stop offset="1" stop-color="#194A82"/>
</linearGradient>
</defs>
</svg>
