<svg width="23" height="25" viewBox="0 0 23 25" fill="none" xmlns="http://www.w3.org/2000/svg">
<path d="M10.0509 24.2826C7.96796 24.2826 6.2718 22.5394 6.2718 20.3963C6.2718 19.9672 6.61041 19.619 7.02762 19.619C7.44483 19.619 7.78344 19.9672 7.78344 20.3963C7.78344 21.6825 8.80128 22.7281 10.0509 22.7281C11.3005 22.7281 12.3183 21.6825 12.3183 20.3963C12.3183 19.9672 12.6569 19.619 13.0742 19.619C13.4914 19.619 13.83 19.9672 13.83 20.3963C13.83 22.5394 12.134 24.2826 10.0509 24.2826Z" fill="#181818"/>
<path d="M18.3426 21.2272H1.75894C0.789077 21.2272 0.00012207 20.4347 0.00012207 19.4605C0.00012207 18.9435 0.224276 18.454 0.615164 18.1178C0.640377 18.0956 0.66743 18.0754 0.695587 18.0571C2.17099 16.7639 3.01534 14.9034 3.01534 12.9388V10.1222C3.01534 6.22546 6.17226 3.05542 10.0508 3.05542C10.2116 3.05542 10.3855 3.05838 10.5464 3.08574C10.9573 3.15432 11.2349 3.54509 11.1664 3.95695C11.0981 4.3688 10.7021 4.64756 10.299 4.57879C10.2186 4.56567 10.1303 4.56973 10.0508 4.56973C7.00354 4.56973 4.52295 7.06025 4.52295 10.1222V12.9388C4.52295 15.3779 3.45849 17.6858 1.60527 19.2696C1.59018 19.2818 1.57711 19.2929 1.56092 19.304C1.53386 19.3384 1.50773 19.3908 1.50773 19.4605C1.50773 19.5977 1.62238 19.7129 1.75894 19.7129H18.3426C18.4794 19.7129 18.594 19.5977 18.594 19.4605C18.594 19.3897 18.5679 19.3384 18.5397 19.304C18.5246 19.2929 18.5116 19.2818 18.4965 19.2696C16.6421 17.6847 15.5788 15.3779 15.5788 12.9388V11.8385C15.5788 11.4206 15.9165 11.0814 16.3326 11.0814C16.7487 11.0814 17.0864 11.4206 17.0864 11.8385V12.9388C17.0864 14.9045 17.9317 16.7659 19.4091 18.0603C19.4362 18.0784 19.4623 18.0976 19.4864 18.1189C19.8775 18.454 20.1016 18.9435 20.1016 19.4605C20.1016 20.4347 19.3127 21.2272 18.3426 21.2272Z" fill="#181818"/>
<path d="M17.1267 10.1312C14.3335 10.1312 12.0611 7.85887 12.0611 5.06567C12.0611 2.27247 14.3335 0 17.1267 0C19.9199 0 22.1922 2.27247 22.1922 5.06567C22.1922 7.85887 19.9199 10.1312 17.1267 10.1312ZM17.1267 1.51968C15.1713 1.51968 13.5807 3.11023 13.5807 5.06567C13.5807 7.02093 15.1713 8.61147 17.1267 8.61147C19.082 8.61147 20.6725 7.02093 20.6725 5.06567C20.6725 3.11023 19.082 1.51968 17.1267 1.51968Z" fill="#181818"/>
</svg>
