<svg width="22" height="22" viewBox="0 0 22 22" fill="none" xmlns="http://www.w3.org/2000/svg">
<mask id="mask0_24_1399" style="mask-type:luminance" maskUnits="userSpaceOnUse" x="0" y="0" width="22" height="22">
<path d="M0 0H22V22H0V0Z" fill="white"/>
</mask>
<g mask="url(#mask0_24_1399)">
<path d="M11 16.1992C11 19.0469 8.69145 21.3555 5.84373 21.3555C2.99602 21.3555 0.687485 19.0469 0.687485 16.1992C0.687485 13.3515 2.99602 11.043 5.84373 11.043C8.69145 11.043 11 13.3515 11 16.1992Z" stroke="#FFFFFF" stroke-miterlimit="10" stroke-linecap="round" stroke-linejoin="round"/>
<path d="M5.84373 21.3555H20.0234C20.7353 21.3555 21.3125 20.7783 21.3125 20.0664V4.94153L17.0158 0.644531H7.13279C6.42088 0.644531 5.84373 1.22169 5.84373 1.93359V11.043" stroke="#FFFFFF" stroke-miterlimit="10" stroke-linecap="round" stroke-linejoin="round"/>
<path d="M17.0156 0.644531V4.94141H21.3125L17.0156 0.644531Z" stroke="#FFFFFF" stroke-miterlimit="10" stroke-linecap="round" stroke-linejoin="round"/>
<path d="M9.25382 12.332H18.3047" stroke="#FFFFFF" stroke-miterlimit="10" stroke-linecap="round" stroke-linejoin="round"/>
<path d="M8.85152 8.46481H18.3046" stroke="#FFFFFF" stroke-miterlimit="10" stroke-linecap="round" stroke-linejoin="round"/>
<path d="M5.84373 16.1992V13.6211" stroke="#FFFFFF" stroke-miterlimit="10" stroke-linecap="round" stroke-linejoin="round"/>
<path d="M5.84373 16.1992H7.56248" stroke="#FFFFFF" stroke-miterlimit="10" stroke-linecap="round" stroke-linejoin="round"/>
</g>
</svg>
