<svg width="22" height="22" viewBox="0 0 22 22" fill="none" xmlns="http://www.w3.org/2000/svg">
<path d="M6.07429 5.00665C5.75701 4.68911 5.24225 4.68911 4.92497 5.00665C3.74694 6.18468 3.16793 7.82574 3.3362 9.50934C3.37818 9.92875 3.73151 10.2414 4.14414 10.2414C4.17125 10.2414 4.19858 10.24 4.22569 10.2373C4.67248 10.1926 4.9984 9.79405 4.95371 9.34756C4.83396 8.1511 5.24255 6.98772 6.07429 6.15593C6.39183 5.83869 6.39183 5.32389 6.07429 5.00665Z" fill="#FFFFFF"/>
<path d="M9.29309 0C4.16886 0 0 4.16886 0 9.29309C0 14.4173 4.16886 18.5862 9.29309 18.5862C14.4173 18.5862 18.5862 14.4173 18.5862 9.29309C18.5862 4.16886 14.4173 0 9.29309 0ZM9.29309 16.9606C5.06515 16.9606 1.62563 13.521 1.62563 9.29309C1.62563 5.06515 5.06515 1.62563 9.29309 1.62563C13.5208 1.62563 16.9606 5.06515 16.9606 9.29309C16.9606 13.521 13.521 16.9606 9.29309 16.9606Z" fill="#FFFFFF"/>
<path d="M21.7617 20.6125L15.8553 14.7061C15.5378 14.3886 15.0235 14.3886 14.706 14.7061C14.3884 15.0234 14.3884 15.5382 14.706 15.8555L20.6124 21.7619C20.7712 21.9206 20.979 22 21.1871 22C21.3952 22 21.603 21.9206 21.7617 21.7619C22.0792 21.4446 22.0792 20.9298 21.7617 20.6125Z" fill="#FFFFFF"/>
</svg>
