<svg xmlns="http://www.w3.org/2000/svg" version="1.1" xmlns:xlink="http://www.w3.org/1999/xlink" xmlns:svgjs="http://svgjs.com/svgjs" width="512" height="512" x="0" y="0" viewBox="0 0 48 48" style="enable-background:new 0 0 512 512" xml:space="preserve" class=""><g><path d="M43 1.25H27A3.754 3.754 0 0 0 23.25 5v10a3.757 3.757 0 0 0 3 3.675V23c0 .639.813.986 1.272.538l4.925-4.788H43A3.754 3.754 0 0 0 46.75 15V5A3.754 3.754 0 0 0 43 1.25zm-9 13.5h-6a.75.75 0 0 1 0-1.5h6a.75.75 0 0 1 0 1.5zm8-4H28a.75.75 0 0 1 0-1.5h14a.75.75 0 0 1 0 1.5zm0-4H28a.75.75 0 0 1 0-1.5h14a.75.75 0 0 1 0 1.5zM35.826 30.979a3.74 3.74 0 0 0-4.639-.075l-2.073 1.58 11.561 9.225 1.132-1.362c1.214-1.462.994-3.694-.478-4.89zM17.095 16.813a3.74 3.74 0 0 0-.074-4.64L12.731 6.9c-1.3-1.598-3.72-1.835-5.306-.518l-1.134.942 9.226 11.561z" fill="#2196f3" data-original="#000000" class=""></path><path d="M27.824 33.466a2.25 2.25 0 0 1-2.186.306c-2.653-1.061-4.976-2.577-6.905-4.505-1.929-1.93-3.445-4.253-4.506-6.904a2.25 2.25 0 0 1 .307-2.187l.046-.06L5.137 8.283l-.728.605C1.64 11.19.566 14.9 1.677 18.341c2.096 6.493 5.69 12.314 10.68 17.303 4.99 4.99 10.811 8.584 17.302 10.68 3.39 1.093 7.175.009 9.453-2.733l.605-.728-11.833-9.443z" fill="#2196f3" data-original="#000000" class=""></path></g></svg>