<svg width="15" height="15" viewBox="0 0 15 15" fill="none" xmlns="http://www.w3.org/2000/svg">
<path d="M5.67844 6.21951C6.29361 6.21951 6.89497 6.03713 7.40646 5.69543C7.91796 5.35372 8.31662 4.86804 8.55204 4.29981C8.78746 3.73158 8.84905 3.10631 8.72904 2.50307C8.60903 1.89984 8.31279 1.34573 7.8778 0.910828C7.44281 0.475921 6.88859 0.179745 6.28524 0.0597545C5.68189 -0.0602361 5.05649 0.00134741 4.48815 0.236717C3.9198 0.472088 3.43403 0.870673 3.09226 1.38207C2.75049 1.89347 2.56807 2.49471 2.56807 3.10976C2.56904 3.93422 2.89704 4.72463 3.48014 5.30762C4.06324 5.8906 4.85381 6.21854 5.67844 6.21951ZM5.67844 1.09756C6.07649 1.09756 6.4656 1.21558 6.79657 1.43668C7.12754 1.65778 7.3855 1.97204 7.53783 2.33972C7.69016 2.7074 7.73001 3.11199 7.65236 3.50232C7.5747 3.89264 7.38302 4.25118 7.10155 4.53259C6.82009 4.814 6.46148 5.00565 6.07107 5.08329C5.68067 5.16093 5.276 5.12108 4.90825 4.96878C4.5405 4.81648 4.22617 4.55858 4.00503 4.22767C3.78388 3.89677 3.66584 3.50773 3.66584 3.10976C3.66642 2.57627 3.87865 2.0648 4.25596 1.68756C4.63327 1.31033 5.14484 1.09814 5.67844 1.09756ZM1.09778 11.539C1.09778 12.6827 1.59031 13.1707 2.74444 13.1707H5.67185C5.81742 13.1707 5.95703 13.2285 6.05997 13.3315C6.16291 13.4344 6.22074 13.574 6.22074 13.7195C6.22074 13.8651 6.16291 14.0046 6.05997 14.1076C5.95703 14.2105 5.81742 14.2683 5.67185 14.2683H2.74444C0.974826 14.2683 0 13.2988 0 11.539C0 9.59122 1.10217 7.31707 4.20815 7.31707H7.13555C7.6995 7.30723 8.26066 7.39843 8.79246 7.58634C8.91861 7.64439 9.01807 7.74808 9.07079 7.87652C9.12351 8.00496 9.12558 8.14861 9.07657 8.27852C9.02757 8.40843 8.93114 8.51493 8.80671 8.57658C8.68229 8.63823 8.53911 8.65043 8.40605 8.61073C7.99761 8.47024 7.56735 8.40383 7.13555 8.41463H4.20815C3.79021 8.38244 3.37026 8.44129 2.97729 8.58712C2.58431 8.73296 2.22767 8.96231 1.93196 9.25935C1.63626 9.55639 1.40854 9.91403 1.26452 10.3076C1.1205 10.7012 1.06361 11.1213 1.09778 11.539ZM14.6275 8.50683L13.8122 7.69244C13.6938 7.57299 13.5527 7.4783 13.3973 7.41385C13.2419 7.34941 13.0752 7.31651 12.9069 7.31707C12.7385 7.31673 12.5716 7.34987 12.4161 7.41456C12.2605 7.47925 12.1194 7.5742 12.0009 7.6939L7.48025 12.2349C7.42933 12.2856 7.38895 12.346 7.36144 12.4124C7.33393 12.4788 7.31984 12.5501 7.31998 12.622V14.4512C7.31998 14.5968 7.37781 14.7364 7.48074 14.8393C7.58368 14.9422 7.72329 15 7.86887 15H9.6985C9.84351 14.9998 9.98261 14.9425 10.0856 14.8405L14.6231 10.32C14.7426 10.2012 14.8374 10.0599 14.902 9.9043C14.9667 9.74872 15 9.5819 15 9.41341C15 9.24493 14.9667 9.07811 14.902 8.92253C14.8374 8.76695 14.7426 8.62568 14.6231 8.50683H14.6275ZM9.47016 13.9024H8.41629V12.8488L11.433 9.81878L12.5008 10.8863L9.47016 13.9024ZM13.851 9.5422L13.2787 10.1122L12.208 9.04098L12.7781 8.46805C12.795 8.45106 12.8151 8.43759 12.8372 8.42842C12.8593 8.41926 12.883 8.41457 12.9069 8.41463C12.9555 8.41471 13.002 8.4339 13.0365 8.46805L13.8518 9.28317C13.8688 9.29996 13.8824 9.32001 13.8916 9.34213C13.9007 9.36426 13.9054 9.388 13.9052 9.41195C13.9052 9.43616 13.9005 9.46014 13.8912 9.4825C13.8819 9.50486 13.8682 9.52515 13.851 9.5422Z" fill="#259AF9"/>
</svg>
